# xmcd CD database file
#
# Track frame offsets:
#	150
#	23460
#	35343
#
# Disc length: 722 seconds
#
# Revision: 3
# Processed by: cddbd v1.5PL3 Copyright (c) Steve Scherf et al.
# Submitted via: CDex 1.50Beta7
#
DISCID=1402d003
DTITLE=LOVE PSYCHEDELICO - I am waiting for you
DYEAR=2003
DGENRE=Rock
TTITLE0=I am waiting for you
TTITLE1=Happiness
TTITLE2=another night
EXTD=YEAR: 2003
EXTT0=
EXTT1=
EXTT2=
PLAYORDER=
